<svg width="93" height="92" viewBox="0 0 93 92" fill="none" xmlns="http://www.w3.org/2000/svg">
<rect width="92.1572" height="92" rx="46" fill="url(#paint0_linear_10_81)"/>
<path d="M38.7273 33.7182V31.1963C38.6847 30.1743 38.8354 29.1536 39.1704 28.1958C39.5054 27.2381 40.0177 26.3631 40.6764 25.6237C41.3351 24.8843 42.1265 24.2958 43.0029 23.8938C43.8792 23.4918 44.8224 23.2845 45.7755 23.2845C46.7285 23.2845 47.6717 23.4918 48.5481 23.8938C49.4245 24.2958 50.2159 24.8843 50.8745 25.6237C51.5332 26.3631 52.0455 27.2381 52.3805 28.1958C52.7155 29.1536 52.8663 30.1743 52.8237 31.1963V33.7182" stroke="white" stroke-width="5" stroke-linecap="round" stroke-linejoin="round"/>
<path d="M45.7755 66.1754C38.0225 66.1754 31.6791 59.3662 31.6791 51.0439V43.4781C31.6791 40.8026 32.6692 38.2368 34.4316 36.345C36.194 34.4532 38.5843 33.3904 41.0767 33.3904H50.4743C52.9667 33.3904 55.357 34.4532 57.1194 36.345C58.8818 38.2368 59.8719 40.8026 59.8719 43.4781V51.0439C59.8719 59.3662 53.5285 66.1754 45.7755 66.1754Z" stroke="white" stroke-width="6" stroke-linecap="round" stroke-linejoin="round"/>
<path d="M32.9243 38.4342C28.3899 37.9298 24.6309 33.6425 24.6309 28.3465" stroke="white" stroke-width="6" stroke-linecap="round" stroke-linejoin="round"/>
<path d="M31.6791 48.5219H22.2815" stroke="white" stroke-width="6" stroke-linecap="round" stroke-linejoin="round"/>
<path d="M24.6309 68.6974C24.6309 63.4013 28.6248 58.8618 33.5586 58.6096" stroke="white" stroke-width="6" stroke-linecap="round" stroke-linejoin="round"/>
<path d="M66.8496 28.3465C66.8496 33.6425 63.0906 37.9298 58.6267 38.4342" stroke="white" stroke-width="6" stroke-linecap="round" stroke-linejoin="round"/>
<path d="M69.2696 48.5219H59.8719" stroke="white" stroke-width="6" stroke-linecap="round" stroke-linejoin="round"/>
<path d="M57.9924 58.6096C62.9262 58.8618 66.9202 63.4013 66.9202 68.6974" stroke="white" stroke-width="6" stroke-linecap="round" stroke-linejoin="round"/>
<defs>
<linearGradient id="paint0_linear_10_81" x1="46.0786" y1="0" x2="46.0786" y2="92" gradientUnits="userSpaceOnUse">
<stop stop-color="#4200FF"/>
<stop offset="1" stop-color="#280099"/>
</linearGradient>
</defs>
</svg>
