<?xml version="1.0" encoding="UTF-8"?>
<svg version="1.1" xmlns="http://www.w3.org/2000/svg" width="1667" height="1668">
<path d="M0 0 C1.7242067 0.00090637 1.7242067 0.00090637 3.48324585 0.00183105 C88.83040028 0.12259734 173.69677494 13.15475274 353.56884766 77.83105469 C356.53471397 79.23346773 359.50752671 80.62047124 362.48046875 82.0078125 C428.1623021 112.87355035 488.73842165 153.71801291 543.83105469 200.81933594 C545.46704842 202.21266556 547.11162368 203.59529969 548.7578125 204.9765625 C564.3160202 218.0872841 578.783752 232.36542291 593.14355469 246.76318359 C595.59194216 249.21700754 598.04573532 251.66533698 600.5 254.11328125 C602.08625877 255.70019977 603.67220787 257.28742789 605.2578125 258.875 C605.97768341 259.59284668 606.69755432 260.31069336 607.4392395 261.05029297 C611.43132971 265.06074368 615.25383444 269.16604857 618.94433594 273.45622253 C621.01279783 275.85454001 623.16357466 278.17380641 625.3125 280.5 C629.38167391 284.96138345 633.23727816 289.54694718 637.02734375 294.24609375 C639.25452637 296.96419507 641.52977721 299.62813127 643.83178711 302.2824707 C649.45938793 308.77366475 654.83975352 315.40776028 660.00048828 322.27783203 C661.62713846 324.4395136 663.26487024 326.59260033 664.90234375 328.74609375 C714.22583648 393.82498564 754.36662751 465.6682031 783.4375 544.1875 C783.67426453 544.82602905 783.91102905 545.46455811 784.15496826 546.12243652 C791.36245256 565.58490622 797.79243767 585.20792623 803.4375 605.1875 C803.62098999 605.83295776 803.80447998 606.47841553 803.99353027 607.14343262 C817.0176878 653.01037744 825.81744064 700.01904066 830.75 747.4375 C830.86331161 748.5115509 830.86331161 748.5115509 830.97891235 749.6072998 C833.78793006 776.74813844 834.82500793 803.94173829 834.75555801 831.21286392 C834.7498794 833.4857719 834.74708263 835.7586723 834.74447632 838.03158569 C834.70213631 863.50429499 833.9736641 888.82524769 831.4375 914.1875 C831.35264343 915.039953 831.26778687 915.89240601 831.18035889 916.77069092 C822.8571189 999.2127018 803.03419427 1080.91659011 770.4375 1157.1875 C769.71965332 1158.86900146 769.71965332 1158.86900146 768.98730469 1160.58447266 C754.71441318 1193.77203993 738.69921855 1226.21746742 720.18896484 1257.24951172 C719.05172606 1259.15716874 717.91897045 1261.06750817 716.79150391 1262.98095703 C690.79174693 1307.09961385 659.91286788 1349.03504488 625.47265625 1386.9375 C623.66372457 1388.93739375 621.88858199 1390.96019432 620.125 1393 C610.19917868 1404.34997387 599.69126599 1415.09338377 589.01806641 1425.73730469 C586.67363323 1428.07633481 584.33465129 1430.42072197 581.99609375 1432.765625 C580.48209166 1434.27896687 578.9677797 1435.79199881 577.453125 1437.3046875 C576.76647766 1437.99335907 576.07983032 1438.68203064 575.37237549 1439.39157104 C571.43998941 1443.3052155 567.40673627 1447.04417571 563.20057678 1450.66253662 C560.61456451 1452.89929344 558.12691918 1455.23204102 555.625 1457.5625 C551.00450451 1461.83145194 546.24643248 1465.86781294 541.34375 1469.8125 C538.63617807 1472.02513943 535.98603153 1474.2885582 533.3449707 1476.5793457 C526.87476395 1482.18993041 520.25126522 1487.53400732 513.41210938 1492.68994141 C511.1034453 1494.44084959 508.80951951 1496.21025656 506.515625 1497.98046875 C496.76249194 1505.49141992 486.95052002 1512.82604246 476.71386719 1519.66503906 C474.08725474 1521.42174811 471.46975165 1523.19170036 468.8515625 1524.9609375 C439.75357441 1544.56178032 409.73363174 1562.31799924 378.4375 1578.1875 C377.68855469 1578.5695459 376.93960937 1578.9515918 376.16796875 1579.34521484 C372.30589911 1581.31409499 368.42951822 1583.25054141 364.53613281 1585.15673828 C363.0591907 1585.88215122 361.58480201 1586.61277462 360.11230469 1587.34716797 C292.65382858 1620.94439335 218.65582802 1643.62858409 144.4375 1656.1875 C143.66118225 1656.31900452 142.8848645 1656.45050903 142.08502197 1656.58599854 C57.99436429 1670.72656991 -28.24948524 1672.44320794 -419.92480469 1554.75244141 C-422.31822331 1553.33242906 -424.72146225 1551.9322438 -427.1328125 1550.54296875 C-455.91752033 1533.92850957 -483.39702814 1514.657751 -509.5625 1494.1875 C-510.71333467 1493.29530585 -511.86438232 1492.40338637 -513.015625 1491.51171875 C-519.42417714 1486.53131781 -525.71519021 1481.44115196 -531.88330078 1476.16552734 C-535.187909 1473.33946902 -538.54014122 1470.58987607 -541.9375 1467.875 C-547.93135618 1463.00444337 -553.50327087 1457.71093083 -559.1171875 1452.4140625 C-561.65294782 1450.02561908 -564.22584558 1447.70054285 -566.875 1445.4375 C-570.83385493 1442.03683503 -574.44737706 1438.31628448 -578.11328125 1434.60546875 C-580.87263595 1431.88132113 -583.75622972 1429.35408369 -586.6953125 1426.828125 C-591.05891647 1422.99399599 -595.03389037 1418.84438201 -598.8125 1414.4375 C-601.74531547 1411.02909284 -604.86348661 1407.84378777 -608.0625 1404.6875 C-611.78850115 1401.00604272 -615.3610625 1397.25454848 -618.76171875 1393.26953125 C-620.93574202 1390.75596422 -623.18640488 1388.31973771 -625.4375 1385.875 C-629.53007435 1381.38736568 -633.41520834 1376.77819772 -637.2265625 1372.05078125 C-639.28021612 1369.53351018 -641.37805735 1367.06205552 -643.49853516 1364.60107422 C-649.19093218 1357.97980078 -654.46636965 1351.10679318 -659.66015625 1344.08984375 C-662.24291667 1340.60103088 -664.89220475 1337.17225039 -667.5625 1333.75 C-709.68895282 1279.22997979 -744.80161256 1216.99819532 -770.5625 1153.1875 C-770.84893372 1152.48077148 -771.13536743 1151.77404297 -771.43048096 1151.04589844 C-803.44647714 1071.91467788 -823.18969575 989.21002824 -832.765625 857.03125 C-832.77260249 855.32812475 -832.77964346 853.62499975 -832.78674316 851.921875 C-832.80602111 846.51041338 -832.81091841 841.09899222 -832.8125 835.6875 C-832.81308914 834.76728058 -832.81367828 833.84706116 -832.81428528 832.8989563 C-832.82618342 806.59317749 -832.68918332 780.42639106 -829.78710938 754.25036621 C-829.55899516 752.15531067 -829.34739238 750.0591778 -829.140625 747.96191406 C-821.4204616 669.99135288 -802.42256156 592.64506058 -772.5625 520.1875 C-772.0984375 519.05425293 -771.634375 517.92100586 -771.15625 516.75341797 C-758.66987287 486.44360459 -744.55095771 456.80489053 -728.5625 428.1875 C-727.94665039 427.08229004 -727.33080078 425.97708008 -726.69628906 424.83837891 C-718.50733957 410.21464583 -709.80143295 396.01995893 -700.49365234 382.08349609 C-698.4908295 379.08002143 -696.5040771 376.06635883 -694.51953125 373.05078125 C-683.46576458 356.29772578 -671.92968239 339.9954724 -659.5625 324.1875 C-658.67030585 323.03666533 -657.77838637 321.88561768 -656.88671875 320.734375 C-651.90693812 314.32662105 -646.81698694 308.03681992 -641.54272461 301.86889648 C-638.69749673 298.541272 -635.92533697 295.16730016 -633.1875 291.75 C-628.56724721 286.06609189 -623.58543689 280.75425486 -618.57421875 275.41796875 C-616.2414695 272.9299425 -613.97199536 270.4005907 -611.75 267.8125 C-608.82844115 264.42204899 -605.69145237 261.29931458 -602.50390625 258.16015625 C-600.74460761 256.37253892 -599.11740464 254.54023874 -597.5 252.625 C-589.83811295 243.72732472 -581.28511251 235.29666089 -572.31640625 227.72265625 C-570.30416518 225.96138512 -568.43878014 224.09270161 -566.5625 222.1875 C-563.3913397 218.97315269 -560.10667247 215.96999037 -556.68359375 213.02734375 C-554.33758942 210.99241181 -552.0451355 208.90459033 -549.75 206.8125 C-545.03406669 202.56101467 -540.16484542 198.53702921 -535.22900391 194.54492188 C-533.32465888 192.99377064 -531.43326869 191.42761071 -529.54296875 189.859375 C-521.01422467 182.78612066 -512.4329001 175.83067925 -503.5625 169.1875 C-502.89089844 168.6831543 -502.21929687 168.17880859 -501.52734375 167.65917969 C-476.79172525 149.12959069 -451.27667267 131.74801809 -424.5625 116.1875 C-423.42989746 115.52766113 -423.42989746 115.52766113 -422.27441406 114.85449219 C-347.19334311 71.26385051 -266.75813539 38.61422549 0 0 Z " fill="#F9F2EA" transform="translate(832.5625,-0.1875)"/>
<path d="M0 0 C27.06 0 54.12 0 82 0 C85.1845892 22.5023431 85.1845892 22.5023431 86.57299805 32.31665039 C87.53798169 39.13786986 88.50302043 45.9590815 89.46841431 52.78024292 C95.82441848 97.69099888 95.82441848 97.69099888 98.60546875 117.6328125 C98.79227109 118.97105632 98.97908916 120.30929795 99.16592407 121.64753723 C99.98095138 127.48782004 100.79357235 133.32841725 101.6015625 139.16967773 C103.21975585 150.81364414 104.99178883 162.41668156 107 174 C107.07437286 173.24738892 107.14874573 172.49477783 107.22537231 171.71936035 C110.67121582 136.86967138 114.160397 102.02720475 117.92895508 67.21069336 C118.16881083 64.99463197 118.4086388 62.77856757 118.6484375 60.5625 C118.76356186 59.49894791 118.87868622 58.43539581 118.99729919 57.33961487 C120.31159871 45.16568443 121.55969221 32.98507639 122.7956543 20.80297852 C122.87089325 20.06204956 122.9461322 19.32112061 123.02365112 18.55773926 C123.22122363 16.60960076 123.41790491 14.66137194 123.61450195 12.71313477 C124.0547006 8.47312131 124.52925217 4.23673051 125 0 C158.33 0 191.66 0 226 0 C226.825 8.1675 227.65 16.335 228.5 24.75 C230.98456155 49.25611017 233.53838599 73.7544743 236.125 98.25 C236.21092407 99.06371063 236.29684814 99.87742126 236.38537598 100.71578979 C236.55805304 102.35100585 236.73073293 103.98622161 236.90341568 105.62143707 C237.32373272 109.60178068 237.74394786 113.58213503 238.1640625 117.5625 C238.28536907 118.71171181 238.28536907 118.71171181 238.40912628 119.88414001 C240.31223417 137.91872174 242.17250673 155.95760112 244 174 C245.99654836 162.66071088 247.57300301 151.26065285 249.1953125 139.86328125 C249.50724308 137.67890934 249.81928262 135.49455299 250.13142395 133.31021118 C250.96050785 127.50547921 251.78775502 121.70048695 252.61454391 115.8954277 C253.12493376 112.31296498 253.63586987 108.7305806 254.14700317 105.14822388 C259.14689098 70.10553787 264.10591327 35.05764167 269 0 C294.74 0 320.48 0 347 0 C345.87500401 11.24995991 345.87500401 11.24995991 344.97343445 15.41934204 C344.66923332 16.84573753 344.66923332 16.84573753 344.35888672 18.3009491 C344.13821533 19.30845718 343.91754395 20.31596527 343.69018555 21.35400391 C343.4557222 22.44569382 343.22125885 23.53738373 342.97969055 24.66215515 C342.20389287 28.26809929 341.42031506 31.87230575 340.63671875 35.4765625 C340.08347762 38.04085877 339.53073827 40.60526335 338.97846985 43.16976929 C337.66554476 49.26251307 336.3470841 55.3540447 335.02653581 61.44514024 C333.57217872 68.1544496 332.12322516 74.86492082 330.67512488 81.57558298 C329.96245855 84.87812053 329.24957148 88.18061043 328.53665161 91.48309326 C328.39556351 92.13667336 328.25447541 92.79025346 328.10911191 93.46363902 C327.10594051 98.1102982 326.10187132 102.75676285 325.09738159 107.40313721 C321.53599123 123.87727351 317.98118869 140.35280651 314.44544411 156.83246994 C313.97197054 159.03883347 313.49814442 161.2451214 313.02387047 163.45131302 C308.26001478 185.61587949 303.64451813 207.80952451 299 230 C264.35 230 229.7 230 194 230 C189.45132778 195.88495836 189.45132778 195.88495836 187.84793091 180.9118042 C187.33464482 176.12512192 186.80758206 171.33995004 186.28125 166.5546875 C186.1746254 165.58387238 186.06800079 164.61305725 185.95814514 163.61282349 C184.6966015 152.17359014 183.32978919 140.7472877 181.9543457 129.32128906 C181.7468631 127.59701056 181.53942557 125.87272663 181.33203125 124.1484375 C181.22748123 123.27956909 181.12293121 122.41070068 181.01521301 121.51550293 C180.11932238 114.04645551 179.25139036 106.57428039 178.38671875 99.1015625 C177.9758109 95.56242109 177.5646797 92.02330567 177.15353394 88.48419189 C176.88556557 86.17049998 176.61889257 83.85665765 176.35354614 81.54266357 C175.98383179 78.31971188 175.60956633 75.097318 175.234375 71.875 C175.12417526 70.9031778 175.01397552 69.93135559 174.9004364 68.93008423 C174.74427605 67.59957535 174.74427605 67.59957535 174.58496094 66.2421875 C174.49567322 65.4672998 174.4063855 64.69241211 174.31439209 63.89404297 C174.08207947 61.91856296 174.08207947 61.91856296 173 60 C172.92340652 60.68791626 172.84681305 61.37583252 172.76789856 62.08459473 C166.21114546 120.93433164 166.21114546 120.93433164 163.07662964 145.52859497 C161.20787247 160.19175568 159.47457214 174.86843492 157.78662109 189.5534668 C156.23523143 203.04160909 154.61772253 216.51897895 153 230 C118.68 230 84.36 230 49 230 C47.12802978 224.38408935 45.54239249 219.46597006 44.37890625 213.77734375 C44.16840889 212.76216927 44.16840889 212.76216927 43.95365906 211.72648621 C43.64759225 210.24808373 43.34390704 208.76918661 43.0423584 207.28985596 C42.18201635 203.07229772 41.30207665 198.85879807 40.42578125 194.64453125 C40.23519135 193.72544983 40.04460144 192.80636841 39.84823608 191.85943604 C37.37188117 179.93594504 34.80738964 168.0313168 32.25 156.125 C31.73358363 153.71859989 31.21722676 151.31218701 30.70092773 148.90576172 C29.9152483 145.24396746 29.12949242 141.58218971 28.34346008 137.92047119 C26.57804598 129.69621083 24.81543666 121.47135401 23.0546875 113.24609375 C22.81308899 112.11783173 22.57149048 110.9895697 22.3225708 109.82711792 C21.10348204 104.13395818 19.88512692 98.44064312 18.66796875 92.74707031 C16.01184281 80.33168213 13.33365015 67.92143991 10.62916183 55.51651573 C9.64749098 51.01066423 8.66901769 46.504117 7.69052315 41.99757481 C6.74128544 37.62787318 5.78654008 33.25942142 4.82774925 28.8918066 C4.37722029 26.83483692 3.92954157 24.77727164 3.48312378 22.71940613 C2.93626438 20.19867689 2.38487308 17.67892497 1.82815552 15.16035461 C1.58612396 14.03799911 1.34409241 12.91564362 1.09472656 11.75927734 C0.88221252 10.78679047 0.66969849 9.81430359 0.45074463 8.81234741 C0 6 0 6 0 0 Z " fill="#17A05A" transform="translate(324,538)"/>
<path d="M0 0 C23.72517058 19.1208248 36.34206057 47.12417727 40 77 C40.20788519 81.72434841 40.22795192 86.44730236 40.24023438 91.17553711 C40.24984079 93.40062302 40.28087503 95.62474334 40.3125 97.84960938 C40.38687482 107.89725061 39.2343789 117.2106704 37 127 C36.80647949 127.85392334 36.61295898 128.70784668 36.41357422 129.58764648 C29.63513522 157.41878195 12.43018681 181.12748044 -11.75390625 196.4140625 C-21.3286988 202.2226098 -31.21656766 206.06728628 -42 209 C-42.75168457 209.21027832 -43.50336914 209.42055664 -44.27783203 209.63720703 C-76.06463468 218.20275679 -110.80967217 213.47087521 -139.4375 197.5625 C-145.01241026 194.15053307 -150.0331092 190.23622422 -155 186 C-155.74894531 185.39671875 -156.49789063 184.7934375 -157.26953125 184.171875 C-178.51328335 166.46254751 -190.04180693 137.95835875 -193 111 C-193.2914311 105.41320378 -193.34070199 99.84326577 -193.3125 94.25 C-193.31067719 93.49954407 -193.30885437 92.74908813 -193.30697632 91.97589111 C-193.26224221 81.04240852 -192.86393161 70.61271431 -190 60 C-189.83371094 59.35047363 -189.66742187 58.70094727 -189.49609375 58.03173828 C-182.18448548 29.91589649 -164.72777837 5.85981788 -139.86499023 -9.23632812 C-96.78876883 -34.33138513 -39.33497477 -30.39058774 0 0 Z " fill="#17A05A" transform="translate(1288,889)"/>
<path d="M0 0 C23.72517058 19.1208248 36.34206057 47.12417727 40 77 C40.20788519 81.72434841 40.22795192 86.44730236 40.24023438 91.17553711 C40.24984079 93.40062302 40.28087503 95.62474334 40.3125 97.84960938 C40.38687482 107.89725061 39.2343789 117.2106704 37 127 C36.80647949 127.85392334 36.61295898 128.70784668 36.41357422 129.58764648 C29.63513522 157.41878195 12.43018681 181.12748044 -11.75390625 196.4140625 C-21.3286988 202.2226098 -31.21656766 206.06728628 -42 209 C-42.75168457 209.21027832 -43.50336914 209.42055664 -44.27783203 209.63720703 C-76.06463468 218.20275679 -110.80967217 213.47087521 -139.4375 197.5625 C-145.01241026 194.15053307 -150.0331092 190.23622422 -155 186 C-155.74894531 185.39671875 -156.49789062 184.7934375 -157.26953125 184.171875 C-178.51328335 166.46254751 -190.04180693 137.95835875 -193 111 C-193.2914311 105.41320378 -193.34070199 99.84326577 -193.3125 94.25 C-193.31067719 93.49954407 -193.30885437 92.74908813 -193.30697632 91.97589111 C-193.26224221 81.04240852 -192.86393161 70.61271431 -190 60 C-189.83371094 59.35047363 -189.66742187 58.70094727 -189.49609375 58.03173828 C-182.18448548 29.91589649 -164.72777837 5.85981788 -139.86499023 -9.23632812 C-96.78876883 -34.33138513 -39.33497477 -30.39058774 0 0 Z " fill="#17A05A" transform="translate(1045,889)"/>
<path d="M0 0 C34.32 0 68.64 0 104 0 C118.1875 42.625 118.1875 42.625 122.57495117 55.81494141 C123.93702973 59.90453243 123.93702973 59.90453243 125.29951477 63.99398804 C125.88117885 65.74046215 126.46226904 67.48712749 127.0428009 69.23397827 C133.56852165 88.86696389 140.302692 108.42325353 147 128 C147.495 64.64 147.495 64.64 148 0 C172.09 0 196.18 0 221 0 C221 75.9 221 151.8 221 230 C188.33 230 155.66 230 122 230 C107 185 107 185 101.375 168.0625 C92.32958064 141.01492252 83.14942031 114.01257424 74 87 C73.67 134.19 73.34 181.38 73 230 C48.91 230 24.82 230 0 230 C0 154.1 0 78.2 0 0 Z " fill="#17A05A" transform="translate(896,538)"/>
<path d="M0 0 C123.32664609 0 123.32664609 0 139.3125 6.125 C140.12388428 6.4235791 140.93526855 6.7221582 141.77124023 7.02978516 C154.57461828 11.92958042 165.85899161 18.74997478 176 28 C176.76570313 28.68449219 177.53140625 29.36898437 178.3203125 30.07421875 C198.36488972 48.96640738 208.95317083 76.32078929 210.15673828 103.54541016 C211.05850887 138.97729058 205.18913832 170.8590571 180.36328125 197.5625 C160.13426825 218.42680431 136.68541858 225.90208306 108 230 C72.36 230 36.72 230 0 230 C0 154.1 0 78.2 0 0 Z " fill="#17A05A" transform="translate(1131,538)"/>
<path d="M0 0 C25.41 0 50.82 0 77 0 C77 27.72 77 55.44 77 84 C94.82 84 112.64 84 131 84 C131 56.28 131 28.56 131 0 C156.41 0 181.82 0 208 0 C208 75.9 208 151.8 208 230 C182.59 230 157.18 230 131 230 C131 202.28 131 174.56 131 146 C113.18 146 95.36 146 77 146 C77 173.72 77 201.44 77 230 C51.59 230 26.18 230 0 230 C0 154.1 0 78.2 0 0 Z " fill="#17A05A" transform="translate(632,868)"/>
<path d="M0 0 C0.66642517 0.00248749 1.33285034 0.00497498 2.01947021 0.00753784 C31.42724771 0.17573457 62.74520015 5.0734052 84.421875 26.67578125 C85.27265625 27.54589844 86.1234375 28.41601562 87 29.3125 C87.99773437 30.26189453 87.99773437 30.26189453 89.015625 31.23046875 C97.07939388 39.45769241 101.81567831 51.02026225 104.5 62.0625 C104.66008545 62.71017334 104.8201709 63.35784668 104.98510742 64.02514648 C105.89179139 68.24319798 106.06505259 72.26872191 106.03710938 76.58300781 C106.03175171 77.65770325 106.02639404 78.73239868 106.02087402 79.83966064 C106.0139856 80.65569763 106.00709717 81.47173462 106 82.3125 C96.62964062 82.33562504 87.25929099 82.35341591 77.88890934 82.36431217 C73.53831541 82.36954065 69.18774093 82.37663765 64.8371582 82.38793945 C60.64209742 82.39876959 56.44705541 82.4047771 52.25198174 82.40737724 C50.64793032 82.40923126 49.04387997 82.41285144 47.4398365 82.41823006 C45.20083485 82.42544219 42.9619117 82.42649087 40.72290039 82.42602539 C39.44604874 82.428246 38.16919708 82.43046661 36.85365295 82.43275452 C34 82.3125 34 82.3125 33 81.3125 C32.72931509 79.94142207 32.48354085 78.56539102 32.25 77.1875 C30.93630886 71.27588986 28.89611365 67.16306754 23.6953125 63.83984375 C11.33306918 57.39569563 -1.01051356 56.58745258 -14.43359375 60.39453125 C-19.29931577 62.1349341 -23.50982305 64.60883242 -26 69.3125 C-26.41868166 72.59217303 -26.16861813 74.80664561 -25.125 77.9375 C-19.0333681 84.74579448 -8.37453288 85.3104022 0.19952393 86.46429443 C3.1115446 86.85804263 6.01854355 87.28437312 8.92626953 87.70849609 C11.16710645 88.0350306 13.40847365 88.35773151 15.64990234 88.68017578 C81.37965149 98.19175343 81.37965149 98.19175343 100.75 121.5625 C111.47722854 136.36303937 114.88039441 153.31701718 113 171.3125 C109.87926369 190.42652291 100.49301484 206.96467733 84.74047852 218.3503418 C71.78864855 227.20016568 57.28329942 232.23374721 42 235.3125 C40.96141846 235.53679687 40.96141846 235.53679687 39.90185547 235.765625 C3.53894908 243.40883613 -40.65457172 240.43221291 -72.875 220.9375 C-90.64932857 208.98119489 -101.88018829 191.85451372 -106.1875 170.9375 C-107.30332494 165.22229906 -107 160.43798349 -107 154.3125 C-82.91 154.3125 -58.82 154.3125 -34 154.3125 C-33.01 157.9425 -32.02 161.5725 -31 165.3125 C-27.18473758 172.94302483 -20.76054175 175.88428823 -13 178.625 C0.06901274 182.31808895 13.34284205 180.85897359 26 176.3125 C31.38230885 173.16344732 31.38230885 173.16344732 35 168.3125 C35.58626462 165.1620679 35.92122151 162.39885229 35 159.3125 C30.74030434 155.1236026 27.09519632 153.33600592 21.203125 152.2109375 C20.43115784 152.05168793 19.65919067 151.89243835 18.86383057 151.72836304 C6.84027835 149.35791805 -5.38211854 148.01949474 -17.53955078 146.53613281 C-43.48122932 143.3431919 -74.09481933 138.86175588 -91.671875 117.16796875 C-103.6416916 101.23753358 -104.35337521 83.56314694 -103 64.3125 C-100.41608375 46.86199023 -89.32479567 30.96556799 -75.3125 20.5625 C-52.54969801 5.73768151 -26.94426336 -0.12202084 0 0 Z " fill="#17A05A" transform="translate(273,863.6875)"/>
<path d="M0 0 C25.41 0 50.82 0 77 0 C77.33 28.05 77.66 56.1 78 85 C84.99283065 72.62806885 91.86619738 60.43931298 98.41015625 47.87109375 C101.76932312 41.4898572 105.34188032 35.22914418 108.91992188 28.96875 C114.39680986 19.37182885 119.67138414 9.68839248 125 0 C153.38 0 181.76 0 211 0 C202.6967515 13.04796193 202.6967515 13.04796193 198.90625 18.90234375 C198.21396301 19.97161354 198.21396301 19.97161354 197.50769043 21.06248474 C192.14497042 29.33372594 186.73607778 37.57453156 181.31427002 45.80712891 C180.08720193 47.67070374 178.86094634 49.53481379 177.63543701 51.39941406 C170.53469759 62.20098869 163.37821649 72.9583674 156.0703125 83.62109375 C155.43893372 84.54491348 154.80755493 85.46873322 154.15704346 86.42054749 C151.13355387 90.84396729 148.0984631 95.25842885 145.04101562 99.65844727 C143.95647998 101.24067045 142.8724656 102.82325111 141.7890625 104.40625 C141.2853714 105.12086899 140.7816803 105.83548798 140.26272583 106.57176208 C137.71564104 109.98450424 137.71564104 109.98450424 137.25961304 114.02160645 C138.48047545 117.28388205 140.5611006 119.99075028 142.5625 122.8125 C143.04356201 123.50118164 143.52462402 124.18986328 144.02026367 124.89941406 C145.09125431 126.43213409 146.16471723 127.96312863 147.24023438 129.49267578 C149.10113991 132.14410473 150.95025086 134.80345028 152.796875 137.46484375 C159.74432254 147.47651277 166.7217398 157.4670366 173.71459961 167.44702148 C181.568012 178.6593768 189.37463641 189.90435167 197.18603516 201.14599609 C198.64810112 203.25003928 200.11033825 205.35396353 201.57275391 207.45776367 C202.94392338 209.43030383 204.31471495 211.40310674 205.68505859 213.3762207 C206.30848145 214.27300537 206.9319043 215.16979004 207.57421875 216.09375 C208.15864746 216.93550781 208.74307617 217.77726563 209.34521484 218.64453125 C210.85568055 220.79457155 212.40125013 222.91394703 213.95703125 225.03125 C216 228 216 228 216 230 C204.39664024 230.55875283 192.79652389 230.9837558 181.18240261 231.24349213 C175.78706567 231.36824697 170.40098835 231.53693854 165.01098633 231.81054688 C129.11831411 233.58538166 129.11831411 233.58538166 121.64508057 227.76025391 C116.49820217 222.30686729 113.7293178 216.1970776 111.26243591 209.19294739 C109.0853213 203.68659863 105.75314652 198.9195669 102.5 194 C101.26189722 192.03049676 100.02821381 190.05820199 98.80078125 188.08203125 C98.18412598 187.09541504 97.5674707 186.10879883 96.93212891 185.09228516 C95.23889262 182.38233686 93.54629137 179.67199331 91.85409546 176.96139526 C90.80651721 175.28342022 89.75872873 173.60557643 88.7109375 171.92773438 C87.3889553 169.8107764 86.06732536 167.69359839 84.74609375 165.57617188 C84.153125 164.62677734 83.56015625 163.67738281 82.94921875 162.69921875 C82.16550903 161.44371216 82.16550903 161.44371216 81.3659668 160.1628418 C80.26895902 158.42586379 79.13957059 156.70935588 78 155 C77.67 179.75 77.34 204.5 77 230 C51.59 230 26.18 230 0 230 C0 154.1 0 78.2 0 0 Z " fill="#17A05A" transform="translate(676,538)"/>
<path d="M0 0 C23.64232211 18.86739508 36.93312541 45.31757411 41.0625 75.0625 C41.0625 76.7125 41.0625 78.3625 41.0625 80.0625 C15.9825 80.0625 -9.0975 80.0625 -34.9375 80.0625 C-36.9175 71.1525 -36.9175 71.1525 -38.9375 62.0625 C-42.94056242 53.58542664 -46.47245925 48.22024086 -54.9375 44.0625 C-56.01064453 43.505625 -56.01064453 43.505625 -57.10546875 42.9375 C-66.14480686 40.14465622 -79.55427223 40.49740549 -87.98046875 44.8359375 C-88.62628906 45.24070312 -89.27210938 45.64546875 -89.9375 46.0625 C-90.55238281 46.40539062 -91.16726563 46.74828125 -91.80078125 47.1015625 C-100.2562432 52.91352083 -104.74643856 65.70076823 -106.9375 75.3125 C-110.36791698 97.85524017 -110.01327231 122.19590685 -97.9375 142.0625 C-92.68044046 149.11513965 -86.53315669 152.5596116 -77.9375 154.0625 C-67.11117023 155.10916241 -57.02708788 154.90649036 -48.1875 147.875 C-47.07375 146.4828125 -47.07375 146.4828125 -45.9375 145.0625 C-45.44636719 144.45921875 -44.95523438 143.8559375 -44.44921875 143.234375 C-38.45293671 135.19965465 -36.55988137 125.79678824 -34.9375 116.0625 C-9.8575 116.0625 15.2225 116.0625 41.0625 116.0625 C39.88955531 131.31078092 39.88955531 131.31078092 37.5625 138.6875 C37.30259277 139.52724365 37.04268555 140.3669873 36.77490234 141.23217773 C27.55289211 169.76926486 10.0798101 191.90342587 -16.4375 206.125 C-21.61707796 208.63733105 -26.90765088 210.5431085 -32.375 212.3125 C-33.12523437 212.5587915 -33.87546875 212.80508301 -34.6484375 213.05883789 C-65.55878191 222.6192489 -100.82735863 217.96876147 -129.2890625 203.33984375 C-136.0720259 199.57057675 -142.04384355 195.08915575 -147.9375 190.0625 C-148.68644531 189.45921875 -149.43539062 188.8559375 -150.20703125 188.234375 C-171.45078335 170.52504751 -182.97930693 142.02085875 -185.9375 115.0625 C-186.2289311 109.47570378 -186.27820199 103.90576577 -186.25 98.3125 C-186.24817719 97.56204407 -186.24635437 96.81158813 -186.24447632 96.03839111 C-186.19974221 85.10490852 -185.80143161 74.67521431 -182.9375 64.0625 C-182.77121094 63.41297363 -182.60492188 62.76344727 -182.43359375 62.09423828 C-175.12198548 33.97839649 -157.66527837 9.92231788 -132.80249023 -5.17382812 C-93.28939675 -28.19310189 -37.07563107 -28.44090452 0 0 Z " fill="#17A05A" transform="translate(578.9375,884.9375)"/>
<path d="M0 0 C25.41 0 50.82 0 77 0 C77 55.77 77 111.54 77 169 C104.72 169 132.44 169 161 169 C161 189.13 161 209.26 161 230 C107.87 230 54.74 230 0 230 C0 154.1 0 78.2 0 0 Z " fill="#17A05A" transform="translate(1340,868)"/>
<path d="M0 0 C0.91265625 0.54140625 0.91265625 0.54140625 1.84375 1.09375 C9.07097678 6.25605484 12.79921849 15.70776967 15 24 C15.2784375 24.88816406 15.556875 25.77632812 15.84375 26.69140625 C20.28810936 43.13142073 20.22703461 63.75805554 15 80 C14.56494141 81.46179688 14.56494141 81.46179688 14.12109375 82.953125 C10.33643092 94.54464464 4.80027581 101.41760786 -5.98046875 107.03125 C-15.1436798 110.85959349 -28.55815397 110.48756589 -37.796875 107.09375 C-47.47306478 102.28996784 -52.90054705 95.11162962 -56.44140625 85.046875 C-63.97321363 62.29125751 -64.58846405 33.6501459 -53.75 11.75 C-49.250858 4.23232537 -43.5876692 -1.35907288 -35.2265625 -4.3359375 C-23.27464157 -6.79577595 -10.62026499 -6.37215899 0 0 Z " fill="#F8F2E9" transform="translate(1233,931)"/>
<path d="M0 0 C0.91265625 0.54140625 0.91265625 0.54140625 1.84375 1.09375 C9.07097678 6.25605484 12.79921849 15.70776967 15 24 C15.2784375 24.88816406 15.556875 25.77632812 15.84375 26.69140625 C20.28810936 43.13142073 20.22703461 63.75805554 15 80 C14.56494141 81.46179688 14.56494141 81.46179688 14.12109375 82.953125 C10.33643092 94.54464464 4.80027581 101.41760786 -5.98046875 107.03125 C-15.1436798 110.85959349 -28.55815397 110.48756589 -37.796875 107.09375 C-47.47306478 102.28996784 -52.90054705 95.11162962 -56.44140625 85.046875 C-63.97321363 62.29125751 -64.58846405 33.6501459 -53.75 11.75 C-49.250858 4.23232537 -43.5876692 -1.35907288 -35.2265625 -4.3359375 C-23.27464157 -6.79577595 -10.62026499 -6.37215899 0 0 Z " fill="#F8F2E9" transform="translate(990,931)"/>
<path d="M0 0 C32.89786223 0 32.89786223 0 43.87109375 9.64453125 C55.93883633 21.97179517 56.40573479 40.20895397 56.36572266 56.37280273 C56.16077374 70.71640668 53.94157195 84.86034608 44.1875 96.0859375 C31.69309112 108.02615889 16.7182885 106 0 106 C0 71.02 0 36.04 0 0 Z " fill="#F8F2EA" transform="translate(1208,600)"/>
</svg>
